<?xml version="1.0" encoding="iso-8859-1"?>
<!-- Uploaded to: SVG Repo, www.svgrepo.com, Generator: SVG Repo Mixer Tools -->
<svg height="800px" width="800px" version="1.1" id="Layer_1" xmlns="http://www.w3.org/2000/svg" xmlns:xlink="http://www.w3.org/1999/xlink" 
	 viewBox="0 0 512 512" xml:space="preserve">
<g>
	<path style="fill:#5AC779;" d="M422.815,300.756L271.423,6.383c-1.966-3.823-6.635-5.368-10.491-3.469L4.406,129.073
		c-2.697,1.326-4.405,4.071-4.405,7.075v172.419c0,2.105,0.842,4.123,2.339,5.605c1.476,1.462,3.47,2.28,5.546,2.28
		c0.026,0,0.055,0,0.081,0l407.918-4.205c2.735-0.028,5.259-1.471,6.671-3.812C423.968,306.093,424.065,303.188,422.815,300.756z"/>
	<path style="fill:#5AC779;" d="M271.423,6.383c-1.966-3.823-6.635-5.368-10.491-3.469L4.406,129.073
		c-2.697,1.326-4.405,4.071-4.405,7.075v3.654l290.638-96.058L271.423,6.383z"/>
</g>
<path style="fill:#00A085;" d="M422.815,300.756L290.638,43.745L0,139.803v168.764c0,2.105,0.842,4.123,2.339,5.605
	c1.476,1.462,3.47,2.28,5.546,2.28c0.026,0,0.055,0,0.081,0l407.918-4.205c2.735-0.028,5.259-1.471,6.671-3.812
	C423.968,306.093,424.065,303.188,422.815,300.756z"/>
<path style="fill:#AFF078;" d="M469.822,302.963L423.563,46.437c-0.782-4.332-5.124-7.241-9.428-6.307L6.217,128.443
	C2.589,129.228,0,132.437,0,136.149v172.419c0,2.104,0.841,4.12,2.336,5.602c1.476,1.463,3.472,2.284,5.549,2.284
	c0.023,0,0.048,0,0.073,0l454.177-4.205c2.323-0.022,4.519-1.066,6.001-2.855C469.618,307.602,470.234,305.25,469.822,302.963z"/>
<path style="fill:#5AC779;" d="M469.822,302.963l-36.232-200.92L0,138.009v170.558c0,2.104,0.841,4.12,2.336,5.602
	c1.476,1.463,3.472,2.284,5.549,2.284c0.023,0,0.048,0,0.073,0l454.177-4.205c2.323-0.022,4.519-1.066,6.001-2.855
	S470.234,305.25,469.822,302.963z"/>
<path style="fill:#FFD652;" d="M447.343,128.264H7.885c-4.356,0-7.885,3.53-7.885,7.885v365.865c0,4.355,3.529,7.885,7.885,7.885
	h439.458c21.74,0,39.425-17.686,39.425-39.425V167.689C486.768,145.949,469.082,128.264,447.343,128.264z"/>
<path style="fill:#FB9D46;" d="M427.368,438.933V199.229c0-8.709-7.061-15.77-15.77-15.77H0v15.77h403.713
	c4.355,0,7.885,3.53,7.885,7.885v223.934c0,4.355-3.53,7.885-7.885,7.885H0v15.77h411.598
	C420.307,454.703,427.368,447.642,427.368,438.933z"/>
<path style="fill:#FF7452;" d="M403.713,438.933c4.355,0,7.885-3.53,7.885-7.885V207.114c0-4.355-3.53-7.885-7.885-7.885H0v239.704
	H403.713z"/>
<g>
	<path style="fill:#E24642;" d="M309.618,225.512c-17.391,0-31.54,14.149-31.54,31.54V381.11c0,17.391,14.149,31.54,31.54,31.54
		h102.33V225.512H309.618z"/>
	<path style="fill:#E24642;" d="M23.655,173.471H7.885c-4.356,0-7.885-3.53-7.885-7.885s3.529-7.885,7.885-7.885h15.77
		c4.356,0,7.885,3.53,7.885,7.885S28.011,173.471,23.655,173.471z"/>
	<path style="fill:#E24642;" d="M398.254,173.471h-31.216c-4.356,0-7.885-3.53-7.885-7.885s3.529-7.885,7.885-7.885h31.216
		c4.356,0,7.885,3.53,7.885,7.885S402.609,173.471,398.254,173.471z M335.82,173.471h-31.217c-4.356,0-7.885-3.53-7.885-7.885
		s3.529-7.885,7.885-7.885h31.216c4.356,0,7.885,3.53,7.885,7.885S340.175,173.471,335.82,173.471z M273.387,173.471h-31.215
		c-4.356,0-7.885-3.53-7.885-7.885s3.529-7.885,7.885-7.885h31.215c4.356,0,7.885,3.53,7.885,7.885S277.743,173.471,273.387,173.471
		z M210.955,173.471h-31.216c-4.356,0-7.885-3.53-7.885-7.885s3.529-7.885,7.885-7.885h31.216c4.356,0,7.885,3.53,7.885,7.885
		S215.31,173.471,210.955,173.471z M148.522,173.471h-31.216c-4.356,0-7.885-3.53-7.885-7.885s3.529-7.885,7.885-7.885h31.216
		c4.356,0,7.885,3.53,7.885,7.885S152.877,173.471,148.522,173.471z M86.089,173.471H54.871c-4.356,0-7.885-3.53-7.885-7.885
		s3.529-7.885,7.885-7.885h31.216c4.356,0,7.885,3.53,7.885,7.885S90.443,173.471,86.089,173.471z"/>
	<path style="fill:#E24642;" d="M445.24,189.241c-4.356,0-7.885-3.53-7.885-7.885v-7.885h-7.885c-4.356,0-7.885-3.53-7.885-7.885
		s3.529-7.885,7.885-7.885h15.77c4.356,0,7.885,3.53,7.885,7.885v15.77C453.125,185.711,449.596,189.241,445.24,189.241z"/>
	<path style="fill:#E24642;" d="M445.24,437.473c-4.356,0-7.885-3.53-7.885-7.885v-30.605c0-4.355,3.529-7.885,7.885-7.885
		s7.885,3.53,7.885,7.885v30.605C453.125,433.942,449.596,437.473,445.24,437.473z"/>
	<path style="fill:#E24642;" d="M445.24,247.065c-4.356,0-7.885-3.53-7.885-7.885v-27.218c0-4.355,3.529-7.885,7.885-7.885
		s7.885,3.53,7.885,7.885v27.218C453.125,243.534,449.596,247.065,445.24,247.065z"/>
	<path style="fill:#E24642;" d="M445.24,480.461h-15.77c-4.356,0-7.885-3.53-7.885-7.885c0-4.355,3.529-7.885,7.885-7.885h7.885
		v-7.885c0-4.355,3.529-7.885,7.885-7.885s7.885,3.53,7.885,7.885v15.77C453.125,476.931,449.596,480.461,445.24,480.461z"/>
	<path style="fill:#E24642;" d="M398.254,480.461h-31.216c-4.356,0-7.885-3.53-7.885-7.885c0-4.355,3.529-7.885,7.885-7.885h31.216
		c4.356,0,7.885,3.53,7.885,7.885C406.139,476.931,402.609,480.461,398.254,480.461z M335.82,480.461h-31.217
		c-4.356,0-7.885-3.53-7.885-7.885c0-4.355,3.529-7.885,7.885-7.885h31.216c4.356,0,7.885,3.53,7.885,7.885
		C343.704,476.931,340.175,480.461,335.82,480.461z M273.387,480.461h-31.216c-4.356,0-7.885-3.53-7.885-7.885
		c0-4.355,3.529-7.885,7.885-7.885h31.216c4.356,0,7.885,3.53,7.885,7.885C281.272,476.931,277.743,480.461,273.387,480.461z
		 M210.953,480.461h-31.215c-4.356,0-7.885-3.53-7.885-7.885c0-4.355,3.529-7.885,7.885-7.885h31.215
		c4.356,0,7.885,3.53,7.885,7.885C218.838,476.931,215.309,480.461,210.953,480.461z M148.522,480.461h-31.216
		c-4.356,0-7.885-3.53-7.885-7.885c0-4.355,3.529-7.885,7.885-7.885h31.216c4.356,0,7.885,3.53,7.885,7.885
		C156.407,476.931,152.877,480.461,148.522,480.461z M86.089,480.461H54.871c-4.356,0-7.885-3.53-7.885-7.885
		c0-4.355,3.529-7.885,7.885-7.885h31.216c4.356,0,7.885,3.53,7.885,7.885C93.973,476.931,90.443,480.461,86.089,480.461z"/>
	<path style="fill:#E24642;" d="M23.655,480.461H7.885c-4.356,0-7.885-3.53-7.885-7.885c0-4.355,3.529-7.885,7.885-7.885h15.77
		c4.356,0,7.885,3.53,7.885,7.885C31.54,476.931,28.011,480.461,23.655,480.461z"/>
</g>
<path style="fill:#5AC779;" d="M504.115,233.397H309.618c-13.043,0-23.655,10.611-23.655,23.655V381.11
	c0,13.044,10.612,23.655,23.655,23.655h194.497c4.356,0,7.885-3.53,7.885-7.885V241.282
	C512,236.928,508.471,233.397,504.115,233.397z"/>
<path style="fill:#AFF078;" d="M504.115,233.397H477.13v171.368h26.985c4.356,0,7.885-3.53,7.885-7.885V241.282
	C512,236.928,508.471,233.397,504.115,233.397z"/>
<g>
	<path style="fill:#00A085;" d="M319.08,381.11V257.052c0-13.044,10.612-23.655,23.655-23.655h-33.117
		c-13.043,0-23.655,10.611-23.655,23.655V381.11c0,13.044,10.612,23.655,23.655,23.655h33.117
		C329.692,404.765,319.08,394.154,319.08,381.11z"/>
	<path style="fill:#00A085;" d="M420.008,291.221c4.356,0,7.885-3.53,7.885-7.885c0-4.355-3.529-7.885-7.885-7.885h-21.552v-8.936
		c0-4.355-3.529-7.885-7.885-7.885s-7.885,3.53-7.885,7.885v8.936h-6.834c-10.144,0-18.398,8.254-18.398,18.398v16.821
		c0,10.144,8.254,18.398,18.398,18.398h6.834v22.078h-21.552c-4.356,0-7.885,3.53-7.885,7.885s3.529,7.885,7.885,7.885h21.552v8.936
		c0,4.355,3.529,7.885,7.885,7.885s7.885-3.53,7.885-7.885v-8.936h6.834c10.144,0,18.398-8.254,18.398-18.398v-16.821
		c0-10.144-8.254-18.398-18.398-18.398h-6.834v-22.078H420.008z M405.29,329.069c1.45,0,2.628,1.18,2.628,2.628v16.821
		c0,1.449-1.179,2.628-2.628,2.628h-6.834v-22.078H405.29z M382.686,313.299h-6.834c-1.45,0-2.628-1.18-2.628-2.628v-16.821
		c0-1.449,1.179-2.628,2.628-2.628h6.834V313.299z"/>
</g>
</svg>